<svg xmlns="http://www.w3.org/2000/svg" width="29.263" height="29.263" viewBox="0 0 29.263 29.263">
  <path id="facebook_logo_icon" data-name="facebook logo_icon" d="M14.575,29.262h0Zm.1,0h0Zm-.148,0h0Zm.2,0h0Zm-.238,0h0Zm.285,0h0Zm.047,0h0Zm-.387,0h0Zm.435,0h0Zm-.48,0h0Zm.527,0h0Zm-.571,0h0Zm-.054,0h0Zm.671,0h0Zm-.718,0h0Zm.765,0h0Zm.047,0h0Zm-.855,0h0Zm-.041,0h0Zm.944,0h0Zm.047,0h0Zm-1.05,0h0Zm-.043,0h0Zm1.14,0h0Zm-1.182,0h0Zm1.229,0h0Zm-1.287,0h0Zm1.334,0h0Zm-1.376,0h0Zm1.423,0h0Zm-1.465,0h0Zm1.512,0h0Zm.047,0h0Zm-1.6,0h0Zm1.643,0h0Zm-1.706,0h0Zm-.041,0h0Zm1.794,0h0Zm-1.833,0h0Zm1.88,0h0Zm.047,0h0Zm-1.986,0h0Zm-.041,0,.022,0h-.022Zm2.074,0h-.012l.022,0Zm-2.115,0h0Zm2.162,0h0Zm-2.217,0h0Zm2.263,0h0Zm.046,0h0Zm-2.352,0h0Zm-.041,0h0Zm2.44,0h0Zm-2.486,0h0Zm2.532,0h0Zm.046,0h0Zm-2.627,0h0Zm-.043,0h0Zm2.716,0h0Zm-3.643-.116a14.631,14.631,0,1,1,4.572,0V18.861h3.409l.649-4.229H16.917V11.887A2.115,2.115,0,0,1,19.3,9.6h1.845V6a22.5,22.5,0,0,0-3.275-.286c-3.342,0-5.526,2.026-5.526,5.692v3.223H8.63v4.229h3.715Z" transform="translate(0 0)" fill="#fff" fill-rule="evenodd"/>
</svg>
