<svg xmlns="http://www.w3.org/2000/svg" width="383.051" height="389.325" viewBox="0 0 383.051 389.325">
  <g id="hero-dec3" transform="matrix(0.996, -0.087, 0.087, 0.996, -17.297, 27.323)">
    <g id="Rectángulo_4" data-name="Rectángulo 4" transform="matrix(0.978, -0.208, 0.208, 0.978, 10.782, 75.228)" fill="none" stroke="#fff" stroke-width="16">
      <rect width="301.16" height="301.16" rx="26" stroke="none"/>
      <rect x="8" y="8" width="285.16" height="285.16" rx="18" fill="none"/>
    </g>
    <g id="Trazado_4" data-name="Trazado 4" transform="matrix(0.978, -0.208, 0.208, 0.978, 18.912, 62.615)" fill="none">
      <path d="M26,0H275.16a26,26,0,0,1,26,26V275.16a26,26,0,0,1-26,26H26a26,26,0,0,1-26-26V26A26,26,0,0,1,26,0Z" stroke="none"/>
      <path d="M 26 15.99996948242188 C 20.48599243164062 15.99996948242188 16 20.4859619140625 16 25.99996948242188 L 16 275.1596984863281 C 16 280.6737060546875 20.48599243164062 285.1596984863281 26 285.1596984863281 L 275.15966796875 285.1596984863281 C 280.6736755371094 285.1596984863281 285.15966796875 280.6737060546875 285.15966796875 275.1596984863281 L 285.15966796875 25.99996948242188 C 285.15966796875 20.4859619140625 280.6736755371094 15.99996948242188 275.15966796875 15.99996948242188 L 26 15.99996948242188 M 26 -3.0517578125e-05 L 275.15966796875 -3.0517578125e-05 C 289.51904296875 -3.0517578125e-05 301.15966796875 11.64059448242188 301.15966796875 25.99996948242188 L 301.15966796875 275.1596984863281 C 301.15966796875 289.5191345214844 289.51904296875 301.1596984863281 275.15966796875 301.1596984863281 L 26 301.1596984863281 C 11.64056396484375 301.1596984863281 0 289.5191345214844 0 275.1596984863281 L 0 25.99996948242188 C 0 11.64059448242188 11.64056396484375 -3.0517578125e-05 26 -3.0517578125e-05 Z" stroke="none" fill="#19dad4"/>
    </g>
  </g>
</svg>
