<svg xmlns="http://www.w3.org/2000/svg" width="29.263" height="29.263" viewBox="0 0 29.263 29.263">
  <path id="linkedin_logo_icon" data-name="linkedin logo_icon" d="M14.631,0A14.631,14.631,0,1,1,0,14.631,14.638,14.638,0,0,1,14.631,0ZM10.057,22.854V11.428h-3.8V22.854Zm13.7,0V16.3c0-3.51-1.874-5.142-4.373-5.142a3.772,3.772,0,0,0-3.423,1.886V11.428h-3.8c.05,1.072,0,11.426,0,11.426h3.8V16.473a2.6,2.6,0,0,1,.125-.927,2.078,2.078,0,0,1,1.949-1.389c1.374,0,1.924,1.048,1.924,2.584v6.113h3.8ZM8.183,5.918a1.98,1.98,0,1,0-.05,3.949h.025a1.981,1.981,0,1,0,.026-3.949Z" fill="#fff" fill-rule="evenodd"/>
</svg>
